<svg height="96pt" viewBox="-27 0 512 512" width="512pt" xmlns="http://www.w3.org/2000/svg"><path d="m399.335938 122.359375c-3.707032-15.460937-11.894532-29.554687-23.730469-40.5625-12.722657-11.832031-28.691407-19.1875-45.753907-21.210937-19.886718-37.09375-58.664062-60.585938-101.246093-60.585938-42.574219 0-81.351563 23.488281-101.238281 60.574219-17.085938 2.007812-33.089844 9.367187-45.832032 21.222656-11.835937 11.007813-20.023437 25.101563-23.730468 40.5625-32.839844 6.023437-57.804688 34.855469-57.804688 69.410156 0 38.90625 31.65625 70.5625 70.5625 70.5625h316.015625c38.910156 0 70.5625-31.65625 70.5625-70.5625 0-34.554687-24.960937-63.386719-57.804687-69.410156zm0 0" fill="#e9dfda"/><g fill="#9ae0fc"><path d="m273.996094 412.5-30.394532 15.777344v-34.246094h-30.0625v34.246094l-30.394531-15.777344-13.847656 26.679688 26.652344 13.835937-26.652344 13.835937 13.847656 26.679688 30.394531-15.777344v34.246094h30.0625v-34.246094l30.394532 15.777344 13.851562-26.679688-26.65625-13.835937 26.65625-13.835937zm0 0"/><path d="m427.550781 336.738281-13.847656-26.679687-30.398437 15.78125v-34.25h-30.058594v34.246094l-30.394532-15.777344-13.851562 26.679687 26.652344 13.835938-26.652344 13.839843 13.851562 26.679688 30.394532-15.78125v34.246094h30.058594v-34.246094l30.398437 15.78125 13.847656-26.679688-26.652343-13.839843zm0 0"/><path d="m134.289062 310.058594-30.394531 15.777344v-34.246094h-30.058593v34.25l-30.394532-15.78125-13.851562 26.679687 26.652344 13.835938-26.652344 13.839843 13.851562 26.679688 30.394532-15.78125v34.246094h30.058593v-34.246094l30.394531 15.78125 13.851563-26.679688-26.652344-13.839843 26.652344-13.835938zm0 0"/></g><path d="m427.550781 336.738281-13.847656-26.679687-30.398437 15.78125v-34.25h-30.058594v34.246094l-30.394532-15.777344-13.851562 26.679687 26.652344 13.835938-26.652344 13.839843 13.851562 26.679688 30.394532-15.78125v34.246094h30.058594v-34.246094l30.398437 15.78125 13.847656-26.679688-26.652343-13.839843zm0 0" fill="#00abfe"/><path d="m399.335938 122.359375c-3.707032-15.460937-11.894532-29.554687-23.730469-40.5625-12.722657-11.832031-28.691407-19.1875-45.753907-21.210937-19.886718-37.09375-58.664062-60.585938-101.246093-60.585938-.011719 0-.023438 0-.035157 0v262.332031h158.007813c38.910156 0 70.5625-31.65625 70.5625-70.5625 0-34.554687-24.960937-63.386719-57.804687-69.410156zm0 0" fill="#dad0cb"/><path d="m287.847656 439.179688-13.851562-26.679688-30.394532 15.777344v-34.246094h-15.03125v117.96875h15.03125v-34.246094l30.394532 15.777344 13.851562-26.679688-26.65625-13.835937zm0 0" fill="#00abfe"/></svg>